HIERARCHY
ROOT hip
{
  OFFSET 0 0 0
  CHANNELS 6 Xposition Yposition Zposition Zrotation Yrotation Xrotation
  JOINT abdomen
  {
    OFFSET 0 20.6881 -0.73152
    CHANNELS 3 Zrotation Xrotation Yrotation
    JOINT chest
    {
      OFFSET 0 11.7043 -0.48768
      CHANNELS 3 Zrotation Xrotation Yrotation
      JOINT neck
      {
        OFFSET 0 22.1894 -2.19456
        CHANNELS 3 Zrotation Xrotation Yrotation
        JOINT head
        {
          OFFSET -0.24384 7.07133 1.2192
          CHANNELS 3 Zrotation Xrotation Yrotation
          JOINT leftEye
          {
            OFFSET 4.14528 8.04674 8.04672
            CHANNELS 3 Zrotation Xrotation Yrotation
            End Site
            {
              OFFSET 1 0 0
            }
          }
          JOINT rightEye
          {
            OFFSET -3.6576 8.04674 8.04672
            CHANNELS 3 Zrotation Xrotation Yrotation
            End Site
            {
              OFFSET 1 0 0
            }
          }
        }
      }
      JOINT rCollar
      {
        OFFSET -2.68224 19.2634 -4.8768
        CHANNELS 3 Zrotation Xrotation Yrotation
        JOINT rShldr
        {
          OFFSET -8.77824 -1.95073 1.46304
          CHANNELS 3 Zrotation Xrotation Yrotation
          JOINT rForeArm
          {
            OFFSET -28.1742 -1.7115 0.48768
            CHANNELS 3 Zrotation Xrotation Yrotation
            JOINT rHand
            {
              OFFSET -22.5879 0.773209 7.07136
              CHANNELS 3 Zrotation Xrotation Yrotation
              JOINT rThumb1
              {
                OFFSET -1.2192 -0.487915 3.41376
                CHANNELS 3 Zrotation Xrotation Yrotation
                JOINT rThumb2
                {
                  OFFSET -3.37035 -0.52449 3.41376
                  CHANNELS 3 Zrotation Xrotation Yrotation
                  End Site
                  {
                    OFFSET -1.78271 -1.18214 1.43049
                  }
                }
              }
              JOINT rIndex1
              {
                OFFSET -7.75947 0.938293 5.60832
                CHANNELS 3 Zrotation Xrotation Yrotation
                JOINT rIndex2
                {
                  OFFSET -2.54057 -0.884171 1.56538
                  CHANNELS 3 Zrotation Xrotation Yrotation
                  End Site
                  {
                    OFFSET -1.62519 -0.234802 1.16502
                  }
                }
              }
              JOINT rMid1
              {
                OFFSET -8.24714 1.18213 3.41376
                CHANNELS 3 Zrotation Xrotation Yrotation
                JOINT rMid2
                {
                  OFFSET -3.10165 -0.590103 1.0647
                  CHANNELS 3 Zrotation Xrotation Yrotation
                  End Site
                  {
                    OFFSET -2.48547 -0.328903 0.83742
                  }
                }
              }
              JOINT rRing1
              {
                OFFSET -8.82822 0.546677 1.51678
                CHANNELS 3 Zrotation Xrotation Yrotation
                JOINT rRing2
                {
                  OFFSET -2.60934 -0.819778 -0.0198488
                  CHANNELS 3 Zrotation Xrotation Yrotation
                  End Site
                  {
                    OFFSET -2.33842 -0.294052 0.168128
                  }
                }
              }
              JOINT rPinky1
              {
                OFFSET -8.27202 -0.0477905 -0.4584
                CHANNELS 3 Zrotation Xrotation Yrotation
                JOINT rPinky2
                {
                  OFFSET -1.82734 -0.647385 -0.700984
                  CHANNELS 3 Zrotation Xrotation Yrotation
                  End Site
                  {
                    OFFSET -1.69225 -0.51767 -0.607171
                  }
                }
              }
            }
          }
        }
      }
      JOINT lCollar
      {
        OFFSET 2.68224 19.2634 -4.8768
        CHANNELS 3 Zrotation Xrotation Yrotation
        JOINT lShldr
        {
          OFFSET 8.77824 -1.95073 1.46304
          CHANNELS 3 Zrotation Xrotation Yrotation
          JOINT lForeArm
          {
            OFFSET 28.1742 -1.7115 0.48768
            CHANNELS 3 Zrotation Xrotation Yrotation
            JOINT lHand
            {
              OFFSET 22.5879 0.773209 7.07136
              CHANNELS 3 Zrotation Xrotation Yrotation
              JOINT lThumb1
              {
                OFFSET 1.2192 -0.487915 3.41376
                CHANNELS 3 Zrotation Xrotation Yrotation
                JOINT lThumb2
                {
                  OFFSET 3.37035 -0.52449 3.41376
                  CHANNELS 3 Zrotation Xrotation Yrotation
                  End Site
                  {
                    OFFSET 1.78271 -1.18214 1.43049
                  }
                }
              }
              JOINT lIndex1
              {
                OFFSET 7.75947 0.938293 5.60832
                CHANNELS 3 Zrotation Xrotation Yrotation
                JOINT lIndex2
                {
                  OFFSET 2.54057 -0.884171 1.56538
                  CHANNELS 3 Zrotation Xrotation Yrotation
                  End Site
                  {
                    OFFSET 1.62519 -0.234802 1.16502
                  }
                }
              }
              JOINT lMid1
              {
                OFFSET 8.24714 1.18213 3.41376
                CHANNELS 3 Zrotation Xrotation Yrotation
                JOINT lMid2
                {
                  OFFSET 3.10165 -0.590103 1.0647
                  CHANNELS 3 Zrotation Xrotation Yrotation
                  End Site
                  {
                    OFFSET 2.48547 -0.328903 0.83742
                  }
                }
              }
              JOINT lRing1
              {
                OFFSET 8.82822 0.546677 1.51678
                CHANNELS 3 Zrotation Xrotation Yrotation
                JOINT lRing2
                {
                  OFFSET 2.60934 -0.819778 -0.0198488
                  CHANNELS 3 Zrotation Xrotation Yrotation
                  End Site
                  {
                    OFFSET 2.33842 -0.294052 0.168128
                  }
                }
              }
              JOINT lPinky1
              {
                OFFSET 8.27202 -0.0477905 -0.4584
                CHANNELS 3 Zrotation Xrotation Yrotation
                JOINT lPinky2
                {
                  OFFSET 1.82734 -0.647385 -0.700984
                  CHANNELS 3 Zrotation Xrotation Yrotation
                  End Site
                  {
                    OFFSET 1.69225 -0.51767 -0.607171
                  }
                }
              }
            }
          }
        }
      }
    }
  }
  JOINT rButtock
  {
    OFFSET -8.77824 4.35084 1.2192
    CHANNELS 3 Zrotation Xrotation Yrotation
    JOINT rThigh
    {
      OFFSET 0 -1.70687 -2.19456
      CHANNELS 3 Zrotation Xrotation Yrotation
      JOINT rShin
      {
        OFFSET 0 -36.8199 0.73152
        CHANNELS 3 Zrotation Xrotation Yrotation
        JOINT rFoot
        {
          OFFSET 0.73152 -45.1104 -5.12064
          CHANNELS 3 Zrotation Xrotation Yrotation
          End Site
          {
            OFFSET -1.1221 -3.69964 12.103
          }
        }
      }
    }
  }
  JOINT lButtock
  {
    OFFSET 8.77824 4.35084 1.2192
    CHANNELS 3 Zrotation Xrotation Yrotation
    JOINT lThigh
    {
      OFFSET 0 -1.70687 -2.19456
      CHANNELS 3 Zrotation Xrotation Yrotation
      JOINT lShin
      {
        OFFSET 0 -36.8199 0.73152
        CHANNELS 3 Zrotation Xrotation Yrotation
        JOINT lFoot
        {
          OFFSET -0.73152 -45.1104 -5.12064
          CHANNELS 3 Zrotation Xrotation Yrotation
          End Site
          {
            OFFSET 1.1221 -3.69964 12.103
          }
        }
      }
    }
  }
}
MOTION
Frames:	4
Frame Time:	0.03333
-0.07379696565038789 34.47756208107918 -0.015756339280720275 11.751500129699707 14.207798957824707 10.408299446105957 -17.94179916381836 8.691339492797852 -2.0129897594451904 6.14247989654541 -10.152099609375 -0.3881709575653076 -7.279358863830566 14.24530029296875 -7.4440999031066895 7.222700119018555 -24.219398498535156 -12.892298698425293 -0.0 0.0 -0.0 -0.0 0.0 -0.0 3.1805545068312735e-14 2.6716657857382697e-13 6.997219643978259e-13 64.37869262695312 30.150400161743164 -0.12263698875904083 -17.858997344970703 -10.535900115966797 33.7047004699707 -0.29776492714881897 15.344698905944824 2.2101900577545166 -3.018941097110428e-09 3.894248479241469e-09 -1.5558317967290236e-09 -5.236471256608866e-09 6.684030662285068e-09 -2.650139885318481e-09 -3.0189315491924162e-09 3.894248479241469e-09 -1.5558382360225664e-09 7.7309088706970215 5.474880218505859 0.41731396317481995 -3.018941097110428e-09 3.894271127791171e-09 -1.5558317967290236e-09 2.9055399894714355 0.9651829600334167 0.10290198773145676 -3.0189315491924162e-09 3.894258249204086e-09 -1.5558382360225664e-09 10.27859878540039 0.73180091381073 0.025912299752235413 -3.018941097110428e-09 3.894271127791171e-09 -1.5558317967290236e-09 2.2216696739196777 -0.7334870100021362 -0.2089199721813202 3.1805545068312735e-14 2.6716657857382697e-13 6.997219643978259e-13 -67.05839538574219 40.96050262451172 -9.548590660095215 14.201799392700195 -7.118350028991699 -25.96139907836914 0.1340780407190323 10.361199378967285 -1.4724500179290771 -2.591388659212157e-09 -2.144030952777598e-09 -5.061152608121233e-10 -4.476900627992109e-09 -3.6902383371284486e-09 -8.531964579283624e-10 -2.5914108636726496e-09 -2.144030952777598e-09 -5.06108932540883e-10 -7.7309088706970215 5.474880218505859 -0.41731396317481995 -2.591401315754638e-09 -2.144030952777598e-09 -5.061152608121233e-10 -2.9055399894714355 0.9651829600334167 -0.10290198773145676 -2.591388659212157e-09 -2.1440214048595863e-09 -5.06108932540883e-10 -10.27859878540039 0.73180091381073 -0.025912299752235413 -2.591388659212157e-09 -2.1440214048595863e-09 -5.061152608121233e-10 -2.2216696739196777 -0.7334870100021362 0.2089199721813202 -0.0 0.0 -0.0 -55.48939514160156 -62.67539596557617 -43.7986946105957 -2.900319814682007 74.72789001464844 3.5546696186065674 2.357649803161621 -8.11648178100586 11.275899887084961 -0.0 0.0 -0.0 1.494789481163025 7.726469993591309 8.949910163879395 -0.17112185060977936 31.99700355529785 -2.3792598247528076 12.344498634338379 -18.587900161743164 35.802703857421875
-0.11745634857811597 34.56803476682517 0.018220056549431308 11.86039924621582 14.184199333190918 10.420199394226074 -18.250200271606445 8.824039459228516 -2.0744500160217285 6.190859317779541 -10.225898742675781 -0.4126099646091461 -7.148829936981201 14.320899963378906 -7.365070343017578 7.110479831695557 -24.51599884033203 -12.761798858642578 -0.0 0.0 -0.0 -0.0 0.0 -0.0 4.452776309563783e-14 1.2722218027325094e-14 6.806386509093654e-13 64.23748779296875 29.628997802734375 -0.04113689437508583 -17.911497116088867 -10.59179973602295 33.82229995727539 -0.29111891984939575 15.177599906921387 2.184929847717285 -1.9536396944630496e-09 2.715271119058116e-09 -8.969863185548377e-10 -3.3863396531330636e-09 4.662819907963467e-09 -1.526010984242987e-09 -1.953630146545038e-09 2.7152806669761276e-09 -8.969927023372293e-10 7.7309088706970215 5.474880218505859 0.41731396317481995 -1.9536396944630496e-09 2.715299762812151e-09 -8.969863185548377e-10 2.9055399894714355 0.9651829600334167 0.10290198773145676 -1.953630146545038e-09 2.7152806669761276e-09 -8.969863185548377e-10 10.27859878540039 0.73180091381073 0.025912299752235413 -1.9536396944630496e-09 2.715299762812151e-09 -8.969799902835973e-10 2.2216696739196777 -0.7334870100021362 -0.2089199721813202 4.452776309563783e-14 1.2722218027325094e-14 6.806386509093654e-13 -68.03498840332031 39.32410430908203 -8.602839469909668 13.512397766113281 -6.567650318145752 -24.577898025512695 0.1858530044555664 12.195300102233887 -1.7405399084091187 -2.3061597076434737e-09 -1.7541808006171777e-09 1.4622281163667594e-10 -3.980209495324516e-09 -3.012528893009403e-09 2.7935445623405997e-10 -2.3061597076434737e-09 -1.7541808006171777e-09 1.4622916766349192e-10 -7.7309088706970215 5.474880218505859 -0.41731396317481995 -2.306150159725462e-09 -1.7541808006171777e-09 1.4622281163667594e-10 -2.9055399894714355 0.9651829600334167 -0.10290198773145676 -2.3061597076434737e-09 -1.7541808006171777e-09 1.4622281163667594e-10 -10.27859878540039 0.73180091381073 -0.025912299752235413 -2.306150159725462e-09 -1.7541808006171777e-09 1.4621645560985996e-10 -2.2216696739196777 -0.7334870100021362 0.2089199721813202 -0.0 0.0 -0.0 -55.694698333740234 -62.28450012207031 -44.04399871826172 -2.8282296657562256 74.43190002441406 3.479759931564331 2.4892499446868896 -8.073760032653809 11.871699333190918 -0.0 0.0 -0.0 1.1954197883605957 8.151239395141602 8.772320747375488 -0.18351812660694122 31.21670150756836 -2.3472397327423096 12.007596969604492 -18.34119987487793 35.533897399902344
-0.19469106049556234 34.6758083217388 0.03695577570593205 12.133498191833496 14.24530029296875 10.518799781799316 -18.556396484375 8.667698860168457 -2.122849702835083 6.280749320983887 -10.21049976348877 -0.4201820194721222 -7.062099933624268 14.349699020385742 -7.330078125 7.077679634094238 -24.56049919128418 -12.703798294067383 -0.0 0.0 -0.0 -0.0 0.0 -0.0 -7.062249689118779e-31 -2.5444436054650188e-14 3.4349988673777754e-13 64.08639526367188 29.172399520874023 -0.08912789076566696 -17.991897583007812 -10.678199768066406 34.00190353393555 -0.2896389067173004 15.13949966430664 2.179189920425415 -1.359814205681431e-10 4.197123204541242e-10 -2.3497936929572916e-10 -2.3697993567495246e-10 7.300327009573948e-10 -4.0706008008761785e-10 -1.359814205681431e-10 4.197187042365158e-10 -2.3498572532254514e-10 7.7309088706970215 5.474880218505859 0.41731396317481995 -1.359877904727469e-10 4.1973460818134356e-10 -2.3498572532254514e-10 2.9055399894714355 0.9651829600334167 0.10290198773145676 -1.3597824255473512e-10 4.19721868372136e-10 -2.3497936929572916e-10 10.27859878540039 0.73180091381073 0.025912299752235413 -1.359846124593389e-10 4.1973777231696374e-10 -2.349730132689132e-10 2.2216696739196777 -0.7334870100021362 -0.2089199721813202 -0.0 -2.5444436054650188e-14 3.4349988673777754e-13 -68.8648910522461 37.71780014038086 -7.947449684143066 12.794697761535645 -6.022940158843994 -23.1575984954834 0.24142801761627197 13.823599815368652 -1.982069969177246 -6.970948263074206e-10 -5.419346915669365e-11 9.647512788646395e-10 -1.1922499654204444e-09 -7.898588727517364e-11 1.6762286003668692e-09 -6.971012100898122e-10 -5.419346915669365e-11 9.647576071358799e-10 -7.7309088706970215 5.474880218505859 -0.41731396317481995 -6.970948263074206e-10 -5.419346915669365e-11 9.647512788646395e-10 -2.9055399894714355 0.9651829600334167 -0.10290198773145676 -6.971043742254324e-10 -5.419028767383871e-11 9.647512788646395e-10 -10.27859878540039 0.73180091381073 -0.025912299752235413 -6.970916621718004e-10 -5.419028767383871e-11 9.647512788646395e-10 -2.2216696739196777 -0.7334870100021362 0.2089199721813202 -0.0 0.0 -0.0 -56.184898376464844 -61.96399688720703 -44.7704963684082 -2.7598695755004883 74.15039825439453 3.4142801761627197 2.5459096431732178 -7.983819484710693 12.236800193786621 -0.0 0.0 -0.0 0.9036298394203186 8.4451904296875 8.557818412780762 -0.1985040158033371 30.342697143554688 -2.312849760055542 11.664799690246582 -18.0685977935791 35.294498443603516
-0.278342901890901 34.77808015927599 0.07614609048751608 12.287698745727539 14.268499374389648 10.866098403930664 -18.860998153686523 8.222360610961914 -2.1582000255584717 6.412169456481934 -10.106100082397461 -0.41088396310806274 -7.019029140472412 14.33169937133789 -7.339148998260498 7.123319149017334 -24.35289764404297 -12.718799591064453 -0.0 0.0 -0.0 -0.0 0.0 -0.0 -9.54166352049382e-14 1.5584717761099598e-13 -3.0533323265580226e-13 63.9219970703125 28.780696868896484 -0.264970988035202 -18.099599838256836 -10.79439926147461 34.243900299072266 -0.2932450473308563 15.230399131774902 2.1929197311401367 2.434021206809689e-09 -2.9924309696838236e-09 4.301763667502456e-10 4.211629711647902e-09 -5.114337842115901e-09 7.06712854903202e-10 2.4340307547277007e-09 -2.9924309696838236e-09 4.3017001072342964e-10 7.7309088706970215 5.474880218505859 0.41731396317481995 2.434021206809689e-09 -2.992418313141343e-09 4.301763667502456e-10 2.9055399894714355 0.9651829600334167 0.10290198773145676 2.4340307547277007e-09 -2.9924309696838236e-09 4.301827227770616e-10 10.27859878540039 0.73180091381073 0.025912299752235413 2.434021206809689e-09 -2.9924309696838236e-09 4.301890788038776e-10 2.2216696739196777 -0.7334870100021362 -0.2089199721813202 -9.54166352049382e-14 1.5584717761099598e-13 -3.0533323265580226e-13 -69.57999420166016 36.14849853515625 -7.5608601570129395 12.048599243164062 -5.48505973815918 -21.70009994506836 0.29572197794914246 15.246299743652344 -2.1958999633789062 2.2357897755398426e-09 2.9559501513176656e-09 1.9494699188271625e-09 3.886990729284889e-09 5.110381451345347e-09 3.3374321084522762e-09 2.235780227621831e-09 2.955940603399654e-09 1.949482797414248e-09 -7.7309088706970215 5.474880218505859 -0.41731396317481995 2.235780227621831e-09 2.955940603399654e-09 1.9494699188271625e-09 -2.9055399894714355 0.9651829600334167 -0.10290198773145676 2.235780227621831e-09 2.9559501513176656e-09 1.949482797414248e-09 -10.27859878540039 0.73180091381073 -0.025912299752235413 2.2357897755398426e-09 2.9559501513176656e-09 1.949482797414248e-09 -2.2216696739196777 -0.7334870100021362 0.2089199721813202 -0.0 0.0 -0.0 -56.94969940185547 -61.70499801635742 -45.96559143066406 -2.6945600509643555 73.8832015991211 3.3575499057769775 2.5277099609375 -7.847299575805664 12.371099472045898 -0.0 0.0 -0.0 0.618516206741333 8.60811996459961 8.306229591369629 -0.21575482189655304 29.374797821044922 -2.276400089263916 11.315999031066895 -17.77039909362793 35.08469772338867
